<?xml version="1.0" standalone="no"?>
<!DOCTYPE svg PUBLIC "-//W3C//DTD SVG 20010904//EN"
 "http://www.w3.org/TR/2001/REC-SVG-20010904/DTD/svg10.dtd">
<svg version="1.0" xmlns="http://www.w3.org/2000/svg"
 width="576.000000pt" height="576.000000pt" viewBox="0 0 576.000000 576.000000"
 preserveAspectRatio="xMidYMid meet">

<g transform="translate(0.000000,576.000000) scale(0.100000,-0.100000)"
fill="#000000" stroke="none">
<path d="M2585 5705 c-1043 -121 -1920 -806 -2283 -1785 -61 -165 -94 -283
-126 -460 -25 -140 -53 -397 -43 -406 3 -3 124 -54 269 -114 145 -59 476 -196
735 -303 l473 -195 80 40 c96 47 209 77 309 80 l74 3 87 125 c47 69 199 289
336 490 l251 365 6 100 c29 440 342 815 782 935 114 32 338 39 455 15 119 -24
183 -46 286 -98 330 -166 551 -504 571 -877 26 -477 -272 -911 -727 -1058 -85
-27 -155 -40 -265 -50 l-90 -7 -477 -340 -476 -340 -6 -75 c-31 -333 -251
-603 -563 -692 -94 -27 -285 -31 -373 -9 -78 20 -198 72 -256 111 -135 91
-261 263 -303 413 l-18 62 -359 148 c-197 81 -430 177 -516 212 -86 36 -159
65 -162 65 -7 0 45 -151 88 -253 465 -1120 1623 -1809 2826 -1682 347 37 647
124 954 277 721 360 1244 1013 1445 1803 85 336 105 798 50 1170 -52 353 -183
711 -376 1028 -400 659 -1084 1131 -1843 1272 -239 44 -582 57 -815 30z"/>
<path d="M3725 4244 c-11 -2 -45 -9 -75 -15 -173 -35 -359 -177 -444 -338 -61
-117 -81 -200 -80 -331 0 -136 18 -211 75 -321 134 -258 434 -409 715 -358
147 26 263 88 374 199 141 140 204 288 204 480 1 161 -41 289 -134 415 -83
112 -232 213 -370 250 -56 16 -228 28 -265 19z m200 -160 c270 -70 446 -341
391 -602 -53 -255 -239 -415 -506 -436 -143 -11 -274 38 -381 145 -71 71 -114
147 -139 245 -58 225 24 441 218 576 115 79 280 108 417 72z"/>
<path d="M1975 2388 c-33 -4 -78 -13 -100 -21 -40 -15 -40 -15 -15 -25 352
-143 358 -146 419 -198 208 -180 197 -509 -24 -676 -83 -63 -144 -82 -265 -82
l-105 0 -180 76 c-99 42 -181 75 -183 73 -7 -6 28 -64 72 -117 24 -30 75 -76
113 -102 239 -163 548 -135 748 68 113 114 162 224 172 386 21 371 -284 661
-652 618z"/>
</g>
</svg>
